<?xml version="1.0" encoding="utf-8"?>
<!-- Generator: Adobe Illustrator 19.1.0, SVG Export Plug-In . SVG Version: 6.00 Build 0)  -->
<svg version="1.1" id="Layer_1" xmlns="http://www.w3.org/2000/svg" xmlns:xlink="http://www.w3.org/1999/xlink" x="0px" y="0px"
	 viewBox="0 0 1024 768" style="enable-background:new 0 0 1024 768;" xml:space="preserve">
<style type="text/css">
	.st0{fill:#00A796;}
	.st1{font-family:'Bebas';}
	.st2{font-size:188.3564px;}
	.st3{font-family:'Champagne&Limousines';}
	.st4{font-size:185.6327px;}
	.st5{fill:#A1C1B2;}
</style>
<g>
	<text transform="matrix(1 0 0 1 349.7148 539.6229)" class="st0 st1 st2">Reach</text>
	<text transform="matrix(1 0 0 1 289.3265 343.8084)" class="st3 st4">within</text>
	<g>
		<circle class="st5" cx="457.7" cy="115.7" r="31.7"/>
		<circle class="st5" cx="388.3" cy="126" r="31.7"/>
		<circle class="st5" cx="324" cy="154" r="31.7"/>
		<circle class="st5" cx="269" cy="197.6" r="31.7"/>
		<circle class="st5" cx="227.3" cy="254" r="31.7"/>
		<circle class="st5" cx="201.6" cy="319.2" r="31.7"/>
		<circle class="st5" cx="193.6" cy="388.9" r="31.7"/>
		<circle class="st5" cx="204" cy="458.3" r="31.7"/>
		<circle class="st5" cx="231.9" cy="522.6" r="31.7"/>
		<circle class="st5" cx="275.5" cy="577.5" r="31.7"/>
		<circle class="st5" cx="331.9" cy="619.2" r="31.7"/>
		<circle class="st5" cx="397.2" cy="645" r="31.7"/>
		<circle class="st5" cx="466.8" cy="652.9" r="31.7"/>
		<circle class="st5" cx="536.2" cy="642.6" r="31.7"/>
		<circle class="st5" cx="600.6" cy="614.7" r="31.7"/>
		<circle class="st5" cx="692.6" cy="246" r="31.7"/>
		<circle class="st5" cx="649" cy="191.1" r="31.7"/>
		<circle class="st5" cx="592.6" cy="149.4" r="31.7"/>
		<circle class="st5" cx="527.3" cy="123.6" r="31.7"/>
	</g>
</g>
</svg>
